# xmcd
#
# Track frame offsets:
#	150
#	12027
#	23692
#	36524
#	45766
#	60805
#	71069
#	81100
#	95098
#	106585
#	118003
#	130040
#	143296
#	155142
#	165764
#	176608
#	190660
#	199074
#	209919
#	220680
#	231682
#	243706
#	255835
#	267420
#
# Disc length: 3738 seconds
#
# Revision: 1
# Processed by: cddbd v1.5.2PL0 Copyright (c) Steve Scherf et al.
# Submitted via: audiograbber 1.83.01
#
DISCID=420e9818
DTITLE=Various Artist - Record 7 - Guitar Country -- Record 8 - Bye Bye Love
DYEAR=1900
DGENRE=
TTITLE0=Chet Atkins and The Anita Kerr Singers - Guitar Country
TTITLE1=Duane Eddy - Rebel Rouser
TTITLE2=Elton Britt - Someday (You'll Want Me To Want You)
TTITLE3=Boots Randolph - Yakety Sax
TTITLE4=Faron Young - Your Time's Comin'
TTITLE5=Roy Orbison - Seems To Me
TTITLE6=Chet Atkins and Jerry Reed - Cannonball Rag
TTITLE7=Conway Twitty - That's When She Started To Stop Loving You
TTITLE8=The Osborne Brothers - Tennessee Hound Dog
TTITLE9=Sonny James - Young Love
TTITLE10=Hank Snow - Miller's Cave
TTITLE11=Mel Tillis and The Statesiders - Heart Over Mind
TTITLE12=The Anita Kerr Singers - Bye Bye Love
TTITLE13=Jim Reeves - He'll Have To Go
TTITLE14=Skeeter Davis - He'll Have To Stay
TTITLE15=Rex Allen - Crying In The Chapel
TTITLE16=Roger Miller - Dang Me
TTITLE17=Porter Wagoner and Dolly Parton - Just Someone I Used To Know
TTITLE18=Brenda Lee - Sweet Nothin's
TTITLE19=Don Gibson - (I'd Be) A Leged In My Time
TTITLE20=Kitty Wells - It Wasn't God Who Made Honky Tonk Angels
TTITLE21=Bill Monroe and His Blue Grass Boys - Footprints In The Snow
TTITLE22=Dottie West - Here Comes My Baby
TTITLE23=The Statler Brothers - Do You Remember These
EXTD=
EXTT0=
EXTT1=
EXTT2=
EXTT3=
EXTT4=
EXTT5=
EXTT6=
EXTT7=
EXTT8=
EXTT9=
EXTT10=
EXTT11=
EXTT12=
EXTT13=
EXTT14=
EXTT15=
EXTT16=
EXTT17=
EXTT18=
EXTT19=
EXTT20=
EXTT21=
EXTT22=
EXTT23=
PLAYORDER=
